<svg width="24" height="24" viewBox="0 0 32 32" fill="none" xmlns="http://www.w3.org/2000/svg">
<path d="M16 23.4893V23.5M16 19.2066V8.5" stroke="#A9A0C3" stroke-width="2" stroke-linecap="round" stroke-linejoin="round"/>
<path d="M32 16C32 24.8366 24.8366 32 16 32C7.16344 32 0 24.8366 0 16C0 7.16344 7.16344 0 16 0C24.8366 0 32 7.16344 32 16ZM1.38883 16C1.38883 24.0695 7.93047 30.6112 16 30.6112C24.0695 30.6112 30.6112 24.0695 30.6112 16C30.6112 7.93047 24.0695 1.38883 16 1.38883C7.93047 1.38883 1.38883 7.93047 1.38883 16Z" fill="#A9A0C3"/>
</svg>
