<svg width="11" height="11" viewBox="0 0 20 20" fill="none" xmlns="http://www.w3.org/2000/svg">
<path fill-rule="evenodd" clip-rule="evenodd" d="M20 10C20 12.6522 18.9464 15.1957 17.0711 17.0711C15.1957 18.9464 12.6522 20 10 20C7.34784 20 4.8043 18.9464 2.92893 17.0711C1.05357 15.1957 0 12.6522 0 10C0 7.34784 1.05357 4.8043 2.92893 2.92893C4.8043 1.05357 7.34784 0 10 0C12.6522 0 15.1957 1.05357 17.0711 2.92893C18.9464 4.8043 20 7.34784 20 10ZM8.33333 5C8.33333 4.55797 8.50893 4.13405 8.82149 3.82149C9.13405 3.50893 9.55797 3.33333 10 3.33333C10.442 3.33333 10.8659 3.50893 11.1785 3.82149C11.4911 4.13405 11.6667 4.55797 11.6667 5V10C11.6667 10.442 11.4911 10.8659 11.1785 11.1785C10.8659 11.4911 10.442 11.6667 10 11.6667C9.55797 11.6667 9.13405 11.4911 8.82149 11.1785C8.50893 10.8659 8.33333 10.442 8.33333 10V5ZM10 13.3333C9.55797 13.3333 9.13405 13.5089 8.82149 13.8215C8.50893 14.134 8.33333 14.558 8.33333 15C8.33333 15.442 8.50893 15.8659 8.82149 16.1785C9.13405 16.4911 9.55797 16.6667 10 16.6667C10.442 16.6667 10.8659 16.4911 11.1785 16.1785C11.4911 15.8659 11.6667 15.442 11.6667 15C11.6667 14.558 11.4911 14.134 11.1785 13.8215C10.8659 13.5089 10.442 13.3333 10 13.3333Z" fill="url(#paint0_linear_1289_2051)"/>
<defs>
<linearGradient id="paint0_linear_1289_2051" x1="1" y1="-9" x2="25" y2="15" gradientUnits="userSpaceOnUse">
<stop stop-color="#70FF00"/>
<stop offset="1" stop-color="#FF5C00"/>
</linearGradient>
</defs>
</svg>
